<svg class="svg-icon" style="width: 1em; height: 1em;vertical-align: middle;fill: currentColor;overflow: hidden;" viewBox="0 0 1024 1024" version="1.1" xmlns="http://www.w3.org/2000/svg"><path d="M0 18.110354h1024v987.779292H0z" fill="#6EBEFF" /><path d="M31.185748 351.565918h400.448659v654.323728H31.185748z" fill="#FFFFFF" /><path d="M51.285399 371.668439h170.628871v634.221207H51.285399zM242.011051 371.668439h170.628871v634.221207H242.011051z" fill="#2D4151" /><path d="M453.163597 351.565918h542.535566v605.696466h-542.535566z" fill="#FFFFFF" /><path d="M470.386948 371.668439h243.997477v566.935315h-243.997477zM734.478335 371.668439h243.997477v566.935315h-243.997477z" fill="#2D4151" /><path d="M707.021442 547.346623V931.95554h-220.016831c0-0.002871 193.065157-61.765808 220.016831-384.608917zM400.830444 727.293327v267.811631H247.625863c0 0.002871 134.436869-43.006708 153.204581-267.811631zM211.373579 727.293327v267.811631H58.168999c0 0.002871 134.436869-43.006708 153.20458-267.811631zM971.112829 547.346623V931.95554h-220.016831c0-0.002871 193.065157-61.765808 220.016831-384.608917z" fill="#FCFAFA" /><path d="M184.597009 694.606277h14.352793v51.670054h-14.352793zM264.972648 694.606277h14.352793v51.670054h-14.352793z" fill="#FFFFFF" /><path d="M470.386948 371.668439h243.997477v410.489873h-243.997477zM734.478335 371.668439h243.997477v410.489873h-243.997477z" fill="#839BAA" /><path d="M470.386948 371.668439h243.997477v8.611676h-243.997477zM734.478335 371.668439h243.997477v8.611676h-243.997477z" fill="#678391" /><path d="M470.386948 392.063758h243.997477v8.611675h-243.997477zM734.478335 392.063758h243.997477v8.611675h-243.997477z" fill="#678391" /><path d="M470.386948 412.459076h243.997477v8.611676h-243.997477zM734.478335 412.459076h243.997477v8.611676h-243.997477z" fill="#678391" /><path d="M470.386948 432.857265h243.997477v8.611676h-243.997477zM734.478335 432.857265h243.997477v8.611676h-243.997477z" fill="#678391" /><path d="M470.386948 453.252584h243.997477v8.611676h-243.997477zM734.478335 453.252584h243.997477v8.611676h-243.997477z" fill="#678391" /><path d="M470.386948 473.647902h243.997477v8.611676h-243.997477zM734.478335 473.647902h243.997477v8.611676h-243.997477z" fill="#678391" /><path d="M470.386948 494.046092h243.997477v8.611675h-243.997477zM734.478335 494.046092h243.997477v8.611675h-243.997477z" fill="#678391" /><path d="M470.386948 514.44141h243.997477v8.611676h-243.997477zM734.478335 514.44141h243.997477v8.611676h-243.997477z" fill="#678391" /><path d="M470.386948 534.836729h243.997477v8.611675h-243.997477zM734.478335 534.836729h243.997477v8.611675h-243.997477z" fill="#678391" /><path d="M470.386948 555.232047h243.997477v8.611676h-243.997477zM734.478335 555.232047h243.997477v8.611676h-243.997477z" fill="#678391" /><path d="M470.386948 596.025555h243.997477v8.611675h-243.997477zM734.478335 596.025555h243.997477v8.611675h-243.997477z" fill="#678391" /><path d="M470.386948 636.816192h243.997477v8.611675h-243.997477zM734.478335 636.816192h243.997477v8.611675h-243.997477z" fill="#678391" /><path d="M470.386948 677.609699h243.997477v8.611676h-243.997477zM734.478335 677.609699h243.997477v8.611676h-243.997477z" fill="#678391" /><path d="M470.386948 575.630236h243.997477v8.611676h-243.997477zM734.478335 575.630236h243.997477v8.611676h-243.997477z" fill="#678391" /><path d="M470.386948 616.420873h243.997477v8.611676h-243.997477zM734.478335 616.420873h243.997477v8.611676h-243.997477z" fill="#678391" /><path d="M470.386948 657.21151h243.997477v8.611676h-243.997477zM734.478335 657.21151h243.997477v8.611676h-243.997477z" fill="#678391" /><path d="M470.386948 698.005018h243.997477v8.611676h-243.997477zM734.478335 698.005018h243.997477v8.611676h-243.997477z" fill="#678391" /><path d="M470.386948 718.400336h243.997477v8.611676h-243.997477zM734.478335 718.400336h243.997477v8.611676h-243.997477z" fill="#678391" /><path d="M470.386948 738.798525h243.997477v8.611676h-243.997477zM734.478335 738.798525h243.997477v8.611676h-243.997477z" fill="#678391" /><path d="M470.386948 759.193844h243.997477v8.611676h-243.997477zM734.478335 759.193844h243.997477v8.611676h-243.997477z" fill="#678391" /><path d="M31.185748 52.557057h964.513415v276.053004H31.185748z" fill="#FFFFFF" /><path d="M852.647748 83.177305c-60.244412 0-109.081225 48.836813-109.081225 109.081225s48.836813 109.081225 109.081225 109.081225 109.081225-48.836813 109.081225-109.081225-48.836813-109.081225-109.081225-109.081225z m25.837898 134.916252v61.237625h-51.670054V218.093557H765.577966v-51.670054h61.237626V105.185877h51.670054v61.237626h61.237625v51.670054h-61.237625z" fill="#F93030" /><path d="M193.194332 131.491676v7.058703c0 5.419615-1.320457 8.129422-3.9585 8.129422-0.92719 0-2.279223-0.46216-4.064711-1.38935-8.054787-4.205368-13.884892-6.880729-17.484573-8.020341-3.605422-1.139612-8.115069-1.710853-13.531813-1.710853-17.326691 0-31.231677 6.668308-41.712086 19.999182-8.129422 10.267988-12.191262 22.103301-12.191262 35.508809 0 16.683686 5.916221 30.304487 17.754405 40.85666 10.267988 9.128376 22.140618 13.689694 35.61502 13.689694 5.987985 0 11.373153-0.800886 16.152633-2.405529 4.776609-1.604642 10.121589-4.400566 16.043551-8.396383 1.426668-0.92719 2.566279-1.38935 3.418836-1.389351 2.638043 0 3.9585 2.747125 3.9585 8.235633v7.807919c0 3.565234-0.499477 5.812881-1.498432 6.737201-1.426668 1.214246-4.776609 2.853335-10.052696 4.920137-8.84132 3.49347-18.216565 5.24164-28.125733 5.24164-13.121323 0-25.278139-3.065757-36.473317-9.197269-13.477272-7.414653-23.779707-18.075907-30.910174-31.978023-5.416744-10.695701-8.129422-21.99709-8.129422-33.904167 0-12.475447 2.956675-24.348078 8.878638-35.61502 6.915176-13.118453 16.646369-23.314677 29.199321-30.588672 11.835313-6.843412 24.884872-10.267988 39.145807-10.267988 12.834267 0 24.132786 2.781571 33.901297 8.341844 1.995038 1.142482 3.169097 2.084026 3.527916 2.833241 0.35882 0.743475 0.536794 2.580632 0.536795 5.502861zM242.929629 242.82916h34.865804c3.49347 0 5.7038 0.46503 6.630991 1.38935 0.92719 0.92719 1.392221 3.13752 1.392221 6.63099v4.704846c0 3.49347-0.467901 5.70667-1.392221 6.63099-0.92719 0.92719-3.13752 1.38935-6.630991 1.38935H228.918433c-3.49347 0-5.7038-0.46216-6.63099-1.38935-0.92719-0.92432-1.38935-3.13752-1.389351-6.63099V125.609901c0-3.49347 0.46216-5.7038 1.389351-6.63099 0.92719-0.92432 3.13752-1.38935 6.63099-1.38935h5.990856c3.49347 0 5.7038 0.46503 6.63386 1.38935 0.921449 0.92719 1.38935 3.13752 1.389351 6.63099l-0.002871 117.219259zM328.811 125.609901v129.947315c0 3.49347-0.467901 5.70667-1.38935 6.630991-0.930061 0.92719-3.140391 1.38935-6.633861 1.38935h-5.990856c-3.49347 0-5.7038-0.46216-6.63099-1.38935-0.92719-0.92432-1.38935-3.13752-1.38935-6.630991V125.609901c0-3.49347 0.46216-5.7038 1.38935-6.63099 0.92719-0.92432 3.13752-1.38935 6.63099-1.38935h5.990856c3.49347 0 5.7038 0.46503 6.633861 1.38935 0.92432 0.92719 1.38935 3.13752 1.38935 6.63099zM470.306572 218.980559V125.609901c0-3.49347 0.46216-5.7038 1.389351-6.63099 0.92719-0.92432 3.13752-1.38935 6.63386-1.38935h5.990856c3.49347 0 5.7038 0.46503 6.63099 1.38935 0.92719 0.92719 1.38935 3.13752 1.389351 6.63099v131.767249c0 2.993993-0.35882 5.080889-1.067848 6.254948-0.71764 1.176929-1.960591 1.765394-3.746079 1.765393-1.354904 0-3.243731-1.248693-5.666483-3.743208l-95.936937-100.323151v94.226084c0 3.49347-0.467901 5.70667-1.38935 6.630991-0.930061 0.92719-3.140391 1.38935-6.633861 1.38935h-5.990856c-3.49347 0-5.7038-0.46216-6.63099-1.38935-0.92719-0.92432-1.38935-3.13752-1.38935-6.630991v-132.619805c0-3.065757 0.355949-5.187099 1.067847-6.364028s1.960591-1.765394 3.746079-1.765394c1.354904 0 3.243731 1.28314 5.666483 3.849419l95.936937 100.323151zM549.453613 125.609901v129.947315c0 3.49347-0.467901 5.70667-1.389351 6.630991-0.930061 0.92719-3.140391 1.38935-6.63386 1.38935h-5.990856c-3.49347 0-5.7038-0.46216-6.63099-1.38935-0.92719-0.92432-1.38935-3.13752-1.389351-6.630991V125.609901c0-3.49347 0.46216-5.7038 1.389351-6.63099 0.92719-0.92432 3.13752-1.38935 6.63099-1.38935h5.990856c3.49347 0 5.7038 0.46503 6.63386 1.38935 0.92432 0.92719 1.38935 3.13752 1.389351 6.63099zM692.450487 131.491676v7.058703c0 5.419615-1.320457 8.129422-3.9585 8.129422-0.92719 0-2.279223-0.46216-4.064711-1.38935-8.054787-4.205368-13.884892-6.880729-17.484572-8.020341-3.605422-1.139612-8.115069-1.710853-13.531813-1.710853-17.326691 0-31.231677 6.668308-41.712087 19.999182-8.129422 10.267988-12.191262 22.103301-12.191262 35.508809 0 16.683686 5.916221 30.304487 17.754405 40.85666 10.267988 9.128376 22.140618 13.689694 35.61502 13.689694 5.990856 0 11.373153-0.800886 16.152633-2.405529 4.776609-1.604642 10.121589-4.400566 16.043552-8.396383 1.426668-0.92719 2.566279-1.38935 3.418835-1.389351 2.638043 0 3.9585 2.747125 3.9585 8.235633v7.807919c0 3.565234-0.499477 5.812881-1.498431 6.737201-1.426668 1.214246-4.776609 2.853335-10.052697 4.920137-8.84132 3.49347-18.216565 5.24164-28.125732 5.24164-13.121323 0-25.278139-3.065757-36.473317-9.197269-13.477272-7.414653-23.779707-18.075907-30.910175-31.978023-5.416744-10.695701-8.129422-21.99709-8.129422-33.904167 0-12.475447 2.956675-24.348078 8.878638-35.61502 6.915176-13.118453 16.646369-23.314677 29.199322-30.588672 11.835313-6.843412 24.884872-10.267988 39.145807-10.267988 12.834267 0 24.132786 2.781571 33.901296 8.341844 1.995038 1.142482 3.169097 2.084026 3.527917 2.833241 0.35882 0.743475 0.536794 2.580632 0.536794 5.502861z" fill="#2D4151" /></svg>