<svg class="svg-icon" style="width: 1em; height: 1em;vertical-align: middle;fill: currentColor;overflow: hidden;" viewBox="0 0 1024 1024" version="1.1" xmlns="http://www.w3.org/2000/svg"><path d="M957.54 648c-14.46-20.68-46.44-28.62-71.34-17.76l-170.88 70.5c-6.9-21.4-27.24-36.7-51.2-36.7h-150.86c-22.66 0-59.8-6.6-81.18-14.44l-0.86-0.34a1.388 1.388 0 0 0-0.26-0.1c-26.76-9.84-67.92-15.72-110.1-15.72h-66.34v-18.2c0-18.74-15.26-34-34-34h-36v-16c0-5.52-4.48-10-10-10h-106c-5.52 0-10 4.48-10 10v390c0 5.52 4.48 10 10 10h106c5.52 0 10-4.48 10-10v-20.92h36c18.74 0 34-15.26 34-34v-23.2l281.46 65.3c5.9 1.3 12.44 1.9 19.28 1.9 21.9 0 46.76-6.28 63.08-16.78l323.42-212.3c11.9-7.66 20.24-19.66 22.84-32.92 2.4-12.18-0.1-24.38-7.06-34.32zM164.52 945.24h-86v-370h86v370z m70-301.9c0 0.04-0.02 0.06-0.02 0.1 0 0.04 0.02 0.06 0.02 0.1v256.78c0 7.72-6.28 14-14 14h-36V601.24h36c7.72 0 14 6.28 14 14v28.1z m710.46 35.1c-1.56 7.96-6.68 15.26-14.12 20.04L607.42 910.78c-16.82 10.84-47.6 16.38-67.06 12.14L254.52 856.6V653.44h66.34c39.88 0 78.4 5.4 103.06 14.44l0.86 0.34c0.1 0.04 0.18 0.08 0.28 0.1 23.56 8.66 63.14 15.72 88.2 15.72h150.86c18.04 0 32.84 13.66 33.68 31.24 0.04 0.46 0.04 0.92 0.04 1.4 0 2.1-0.2 4.14-0.62 6.24-3.08 15.28-17 26.38-33.1 26.38h-150.62c-4.3-0.16-44.66-1.02-78.2 27.96a9.984 9.984 0 0 0-1.02 14.1 9.924 9.924 0 0 0 7.56 3.46c2.32 0 4.66-0.8 6.54-2.42 28.44-24.58 64-23.12 64.32-23.12 0.2 0.02 0.38 0.02 0.56 0.02h150.86c25.58 0 47.74-17.84 52.7-42.44 0.36-1.8 0.62-3.62 0.8-5.44l176.3-72.74c0.06-0.02 0.14-0.06 0.2-0.08 16.36-7.18 37.88-2.2 47.02 10.86 3.82 5.46 5.18 12.2 3.84 18.98z" fill="#23130D" /><path d="M78.52 575.24h86v370h-86z" fill="#3594BF" /><path d="M141 575.24h23.52v370H141z" fill="#FFFFFF" opacity=".3" /><path d="M234.52 643.34c0 0.04-0.02 0.06-0.02 0.1 0 0.04 0.02 0.06 0.02 0.1v256.78c0 7.72-6.28 14-14 14h-36V601.24h36c7.72 0 14 6.28 14 14v28.1z" fill="#E1E1E5" /><path d="M184.52 601.24h20v313.08h-20z" fill="#23130D" opacity=".2" /><path d="M944.98 678.44c-1.56 7.96-6.68 15.26-14.12 20.04L607.42 910.78c-16.82 10.84-47.6 16.38-67.06 12.14L254.52 856.6V653.44h66.34c39.88 0 78.4 5.4 103.06 14.44l0.86 0.34c0.1 0.04 0.18 0.08 0.28 0.1 23.56 8.66 63.14 15.72 88.2 15.72h150.86c18.04 0 32.84 13.66 33.68 31.24 0.04 0.46 0.04 0.92 0.04 1.4 0 2.1-0.2 4.14-0.62 6.24-3.08 15.28-17 26.38-33.1 26.38h-150.62c-4.3-0.16-44.66-1.02-78.2 27.96a9.984 9.984 0 0 0-1.02 14.1 9.924 9.924 0 0 0 7.56 3.46c2.32 0 4.66-0.8 6.54-2.42 28.44-24.58 64-23.12 64.32-23.12 0.2 0.02 0.38 0.02 0.56 0.02h150.86c25.58 0 47.74-17.84 52.7-42.44 0.36-1.8 0.62-3.62 0.8-5.44l176.3-72.74c0.06-0.02 0.14-0.06 0.2-0.08 16.36-7.18 37.88-2.2 47.02 10.86 3.82 5.46 5.18 12.2 3.84 18.98z" fill="#F8D3C9" /><path d="M944.98 678.44c-1.56 7.96-6.68 15.26-14.12 20.04L607.42 910.78c-16.82 10.84-47.6 16.38-67.06 12.14L254.52 856.6v-37.34l285.84 66.32c19.46 4.24 50.24-1.3 67.06-12.14l323.44-212.3c2.56-1.64 4.84-3.58 6.78-5.74 1.3 1.26 2.48 2.6 3.5 4.06 3.82 5.46 5.18 12.2 3.84 18.98z" fill="#23130D" opacity=".2" /><path d="M697.84 716.574a31.534 31.534 0 0 1-6.08 18.64c-6.1-8.46-16.22-13.94-27.64-13.94h-150.86c-25.06 0-64.64-7.06-88.2-15.72-0.1-0.02-0.18-0.06-0.28-0.1l-0.86-0.34c-24.66-9.04-63.18-14.44-103.06-14.44h-66.34v-37.34h66.34c39.88 0 78.4 5.4 103.06 14.44l0.86 0.34c0.1 0.04 0.18 0.08 0.28 0.1 23.56 8.66 63.14 15.72 88.2 15.72h150.86c18.04 0 32.84 13.66 33.68 31.24 0.04 0.46 0.04 0.92 0.04 1.4z" fill="#FFFFFF" opacity=".3" /><path d="M789.06 141.4c-53.3-53.3-124.14-82.64-199.48-82.64-75.36 0-146.2 29.34-199.48 82.64-53.28 53.24-82.64 124.1-82.64 199.48 0 75.36 29.34 146.2 82.64 199.46 53.3 53.3 124.14 82.64 199.48 82.64 75.3 0 146.14-29.34 199.46-82.64 53.3-53.26 82.64-124.1 82.64-199.46 0-75.38-29.34-146.22-82.62-199.48z m-384.82 14.14c30.56-30.56 67.34-52.64 107.48-65.06-15.5 13.58-29.76 31.34-42.3 52.96-29.28 50.52-45.94 116.76-47.38 187.44h-94.38c2.48-66.28 29.44-128.22 76.58-175.34z m0 370.66c-47.14-47.12-74.1-109.06-76.58-175.32h94.38c1.44 70.66 18.1 136.9 47.38 187.4 12.54 21.64 26.82 39.4 42.32 53-40.14-12.44-76.94-34.5-107.5-65.08z m175.34 76.16c-34.72-4.2-67.36-30.12-92.86-74.1-27.54-47.54-43.26-110.2-44.68-177.38h137.54v251.48z m0-271.48h-137.56c1.44-67.18 17.16-129.86 44.7-177.4 25.5-43.98 58.14-69.92 92.86-74.1v251.5z m195.34-175.34c47.14 47.12 74.1 109.06 76.56 175.34h-94.36c-1.44-70.68-18.12-136.92-47.4-187.44-12.52-21.62-26.8-39.38-42.3-52.96 40.14 12.42 76.92 34.5 107.5 65.06z m-175.34-76.16c34.7 4.2 67.36 30.12 92.84 74.1 27.56 47.54 43.28 110.22 44.7 177.4h-137.54V79.38z m0 522.98V350.88h137.54c-1.42 67.18-17.14 129.84-44.7 177.38-25.48 43.98-58.14 69.9-92.84 74.1z m175.34-76.16c-30.58 30.56-67.38 52.64-107.5 65.06 15.5-13.58 29.78-31.34 42.3-52.98 29.28-50.5 45.96-116.74 47.4-187.4h94.36c-2.46 66.26-29.42 128.2-76.56 175.32z" fill="#23130D" /><path d="M851.48 350.88c-2.46 66.26-29.42 128.2-76.56 175.32-30.58 30.56-67.38 52.64-107.5 65.06 15.5-13.58 29.78-31.34 42.3-52.98 29.28-50.5 45.96-116.74 47.4-187.4h94.36zM851.48 330.88h-94.36c-1.44-70.68-18.12-136.92-47.4-187.44-12.52-21.62-26.8-39.38-42.3-52.96 40.14 12.42 76.92 34.5 107.5 65.06 47.14 47.12 74.1 109.06 76.56 175.34z" fill="#3594BF" /><path d="M737.12 330.88h-137.54V79.38c34.7 4.2 67.36 30.12 92.84 74.1 27.56 47.54 43.28 110.22 44.7 177.4zM737.12 350.88c-1.42 67.18-17.14 129.84-44.7 177.38-25.48 43.98-58.14 69.9-92.84 74.1V350.88h137.54zM579.58 79.38v251.5h-137.56c1.44-67.18 17.16-129.86 44.7-177.4 25.5-43.98 58.14-69.92 92.86-74.1z" fill="#3594BF" /><path d="M511.72 90.48c-15.5 13.58-29.76 31.34-42.3 52.96-29.28 50.52-45.94 116.76-47.38 187.44h-94.38c2.48-66.28 29.44-128.22 76.58-175.34 30.56-30.56 67.34-52.64 107.48-65.06zM511.74 591.28c-40.14-12.44-76.94-34.5-107.5-65.08-47.14-47.12-74.1-109.06-76.58-175.32h94.38c1.44 70.66 18.1 136.9 47.38 187.4 12.54 21.64 26.82 39.4 42.32 53z" fill="#3594BF" /><path d="M579.58 350.88v251.48c-34.72-4.2-67.36-30.12-92.86-74.1-27.54-47.54-43.26-110.2-44.68-177.38h137.54z" fill="#3594BF" /><path d="M511.71 90.48a177.766 177.766 0 0 0-13.08 12.76c-27.3 12.78-52.46 30.36-74.4 52.3-47.14 47.12-74.1 109.06-76.58 175.34h-20c2.48-66.28 29.44-128.22 76.58-175.34 30.56-30.56 67.34-52.64 107.48-65.06zM511.73 591.28c-40.14-12.44-76.94-34.5-107.5-65.08-47.14-47.12-74.1-109.06-76.58-175.32h20c2.48 66.26 29.44 128.2 76.58 175.32 21.94 21.96 47.1 39.52 74.42 52.28 4.24 4.6 8.62 8.88 13.08 12.8zM579.59 79.38v6.72c-25.44 10.92-48.96 33.92-68.36 67.38-27.54 47.54-43.26 110.22-44.7 177.4h-24.5c1.44-67.18 17.16-129.86 44.7-177.4 25.5-43.98 58.14-69.92 92.86-74.1zM579.59 595.64v6.72c-34.72-4.2-67.36-30.12-92.86-74.1-27.54-47.54-43.26-110.2-44.68-177.38h24.5c1.42 67.18 17.14 129.84 44.68 177.38 19.4 33.46 42.92 56.46 68.36 67.38z" fill="#FFFFFF" opacity=".4" /><path d="M667.46 90.48c4.46 3.92 8.82 8.16 13.08 12.76 27.3 12.78 52.46 30.36 74.4 52.3 47.14 47.12 74.1 109.06 76.58 175.34h20c-2.48-66.28-29.44-128.22-76.58-175.34-30.56-30.56-67.34-52.64-107.48-65.06zM667.44 591.28c40.14-12.44 76.94-34.5 107.5-65.08 47.14-47.12 74.1-109.06 76.58-175.32h-20c-2.48 66.26-29.44 128.2-76.58 175.32-21.94 21.96-47.1 39.52-74.42 52.28-4.24 4.6-8.62 8.88-13.08 12.8zM599.58 79.38v6.72c25.44 10.92 48.96 33.92 68.36 67.38 27.54 47.54 43.26 110.22 44.7 177.4h24.5c-1.44-67.18-17.16-129.86-44.7-177.4-25.5-43.98-58.14-69.92-92.86-74.1zM599.58 595.64v6.72c34.72-4.2 67.36-30.12 92.86-74.1 27.54-47.54 43.26-110.2 44.68-177.38h-24.5c-1.42 67.18-17.14 129.84-44.68 177.38-19.4 33.46-42.92 56.46-68.36 67.38z" fill="#23130D" opacity=".4" /></svg>