<?xml version="1.0" encoding="iso-8859-1"?>
<!-- Uploaded to: SVG Repo, www.svgrepo.com, Generator: SVG Repo Mixer Tools -->
<svg version="1.1" id="Layer_1" xmlns="http://www.w3.org/2000/svg" xmlns:xlink="http://www.w3.org/1999/xlink" 
	 viewBox="0 0 512 512" xml:space="preserve">
<circle style="fill:#E8E8E8;" cx="256" cy="256" r="256"/>
<path d="M355.92,456.08h-200c-6.64,0-12-5.36-12-12v-376c0-6.56,5.36-12,12-12h200c6.64,0,12,5.44,12,12v376
	C367.92,450.64,362.56,456.08,355.92,456.08z"/>
<rect x="155.92" y="88.08" width="200" height="320"/>
<g>
	<path style="fill:#AAAAAA;" d="M279.68,76.08h-48c-2.16,0-4-1.76-4-4l0,0c0-2.16,1.76-4,4-4h48c2.16,0,4,1.76,4,4l0,0
		C283.68,74.24,281.92,76.08,279.68,76.08z"/>
	<path style="fill:#AAAAAA;" d="M279.92,432.08h-48c-2.16,0-4-1.76-4-4l0,0c0-2.16,1.84-4,4-4h48c2.24,0,4,1.84,4,4l0,0
		C283.92,430.24,282.16,432.08,279.92,432.08z"/>
</g>
<g>
	<path style="fill:#FFFFFF;" d="M272.96,259.04H108.08c-8.24,0-14.96-6.72-14.96-14.96V139.12c0-8.24,6.72-14.96,14.96-14.96h164.88
		c8.24,0,14.96,6.72,14.96,14.96V244C288,252.32,281.2,259.04,272.96,259.04z"/>
	<polygon style="fill:#FFFFFF;" points="242.96,304 242.96,244.08 168.08,244.08 	"/>
</g>
<rect x="183.04" y="169.12" width="14.96" height="14.96"/>
<rect x="153.04" y="169.12" width="14.96" height="14.96"/>
<rect x="123.12" y="169.12" width="14.96" height="14.96"/>
<rect x="213.04" y="169.12" width="14.96" height="14.96"/>
<rect x="242.96" y="169.12" width="14.96" height="14.96"/>
<rect x="183.04" y="199.12" width="14.96" height="14.96"/>
<rect x="213.04" y="199.12" width="14.96" height="14.96"/>
<rect x="242.96" y="199.12" width="14.96" height="14.96"/>
<g>
	<path style="fill:#FFFFFF;" d="M176.32,374.48c2.72,1.76,7.6,3.68,12.32,3.68c6.8,0,9.92-3.36,9.92-7.6c0-4.48-2.64-6.88-9.52-9.44
		c-9.2-3.28-13.52-8.32-13.52-14.48c0-8.24,6.64-15.04,17.68-15.04c5.2,0,9.76,1.52,12.56,3.2l-2.32,6.8
		c-2-1.28-5.68-2.96-10.48-2.96c-5.52,0-8.56,3.2-8.56,6.96c0,4.24,3.04,6.16,9.76,8.64c8.88,3.36,13.44,7.84,13.44,15.44
		c0,8.96-6.96,15.36-19.12,15.36c-5.6,0-10.8-1.36-14.4-3.52L176.32,374.48z"/>
	<path style="fill:#FFFFFF;" d="M219.52,346.64c0-5.28-0.08-9.6-0.4-13.84h8.16l0.4,8.24H228c2.88-4.88,7.6-9.44,16.08-9.44
		c6.96,0,12.24,4.24,14.48,10.24h0.24c1.6-2.88,3.6-5.04,5.68-6.64c3.04-2.32,6.48-3.6,11.36-3.6c6.8,0,16.8,4.48,16.8,22.24V384
		h-9.12v-28.96c0-9.84-3.6-15.76-11.12-15.76c-5.28,0-9.44,3.92-11.04,8.48c-0.4,1.28-0.72,2.96-0.72,4.64v31.68h-9.12v-30.72
		c0-8.16-3.6-14.08-10.72-14.08c-5.84,0-10.08,4.64-11.52,9.28c-0.56,1.36-0.72,2.96-0.72,4.56V384h-9.12v-37.36H219.52z"/>
	<path style="fill:#FFFFFF;" d="M306.56,374.48c2.72,1.76,7.6,3.68,12.32,3.68c6.8,0,9.92-3.36,9.92-7.6c0-4.48-2.64-6.88-9.52-9.44
		c-9.2-3.28-13.52-8.32-13.52-14.48c0-8.24,6.64-15.04,17.68-15.04c5.2,0,9.76,1.52,12.56,3.2l-2.32,6.8
		c-2-1.28-5.68-2.96-10.48-2.96c-5.52,0-8.56,3.2-8.56,6.96c0,4.24,3.04,6.16,9.76,8.64c8.88,3.36,13.44,7.84,13.44,15.44
		c0,8.96-6.96,15.36-19.12,15.36c-5.6,0-10.8-1.36-14.4-3.52L306.56,374.48z"/>
</g>
</svg>